<?xml version="1.0" encoding="UTF-8"?>
<svg xmlns="http://www.w3.org/2000/svg" xmlns:xlink="http://www.w3.org/1999/xlink" width="279pt" height="285pt" viewBox="0 0 279 285" version="1.1">
<defs>
<linearGradient id="linear0" gradientUnits="userSpaceOnUse" x1="-556.13635" y1="177.69553" x2="-311.74243" y2="177.69553" gradientTransform="matrix(0.75,0,0,0.748031,423.97614,-47.827593)">
<stop offset="0" style="stop-color:rgb(55.686275%,51.764706%,54.117647%);stop-opacity:1;"/>
<stop offset="1" style="stop-color:rgb(55.686275%,51.764706%,54.117647%);stop-opacity:0;"/>
</linearGradient>
<linearGradient id="linear1" gradientUnits="userSpaceOnUse" x1="-426.19696" y1="122.90763" x2="-203.13635" y2="122.90763" gradientTransform="matrix(0.75,0,0,0.748031,423.97614,-47.827593)">
<stop offset="0" style="stop-color:rgb(63.137255%,62.745098%,62.745098%);stop-opacity:1;"/>
<stop offset="1" style="stop-color:rgb(63.137255%,62.745098%,62.745098%);stop-opacity:0;"/>
</linearGradient>
<linearGradient id="linear2" gradientUnits="userSpaceOnUse" x1="-340.86365" y1="239.75613" x2="-232.22726" y2="239.75613" gradientTransform="matrix(1,0,0,1,-230.77261,-42.510738)">
<stop offset="0" style="stop-color:rgb(55.686275%,51.764706%,54.117647%);stop-opacity:1;"/>
<stop offset="1" style="stop-color:rgb(55.686275%,51.764706%,54.117647%);stop-opacity:0;"/>
</linearGradient>
<linearGradient id="linear3" gradientUnits="userSpaceOnUse" x1="-523.16669" y1="325.57431" x2="-351.5" y2="325.57431" gradientTransform="matrix(1,0,0,1,-230.77261,-42.510738)">
<stop offset="0" style="stop-color:rgb(89.411765%,87.058824%,88.235294%);stop-opacity:1;"/>
<stop offset="1" style="stop-color:rgb(89.411765%,87.058824%,88.235294%);stop-opacity:0;"/>
</linearGradient>
<linearGradient id="linear4" gradientUnits="userSpaceOnUse" x1="-459.16666" y1="330.42279" x2="-354.40909" y2="330.42279" gradientTransform="matrix(0.75,0,0,0.748031,423.97614,-47.827593)">
<stop offset="0" style="stop-color:rgb(55.686275%,51.764706%,54.117647%);stop-opacity:1;"/>
<stop offset="1" style="stop-color:rgb(55.686275%,51.764706%,54.117647%);stop-opacity:0;"/>
</linearGradient>
</defs>
<g id="surface1">
<path style=" stroke:none;fill-rule:nonzero;fill:url(#linear0);" d="M 11.089844 31.390625 L 18.15625 28.515625 L 27.613281 27.066406 L 40.703125 21.261719 L 58.886719 14.734375 L 69.066406 11.105469 L 90.15625 11.105469 L 114.886719 14.734375 L 138.886719 24.890625 L 160.703125 42.296875 L 165.066406 64.058594 L 162.15625 79.292969 L 167.976562 88.722656 L 175.976562 90.898438 L 184.703125 91.621094 L 189.792969 102.503906 L 184.703125 114.835938 L 178.886719 127.164062 L 168.703125 132.96875 L 164.339844 127.890625 L 159.25 122.8125 L 152.703125 119.910156 C 152.703125 119.910156 149.066406 131.515625 143.976562 133.695312 C 138.886719 135.871094 118.523438 155.453125 118.523438 155.453125 L 90.886719 159.082031 L 78.523438 156.90625 L 64.703125 146.75 L 58.886719 139.496094 L 47.976562 132.242188 L 41.429688 125.714844 L 32.703125 122.085938 L 26.15625 111.933594 L 22.523438 102.503906 L 20.339844 84.367188 L 17.429688 66.960938 L 12.339844 56.078125 L 8.703125 44.472656 L 7.5 35.667969 Z M 11.089844 31.390625 "/>
<path style=" stroke:none;fill-rule:nonzero;fill:url(#linear1);" d="M 103.769531 13.386719 C 110.3125 12.660156 127.976562 12.558594 127.976562 12.558594 L 152.703125 19.085938 C 152.703125 19.085938 167.25 17.636719 175.25 17.636719 C 183.25 17.636719 214.523438 11.832031 214.523438 11.832031 L 253.066406 7.480469 L 271.25 7.480469 L 261.792969 14.734375 L 235.613281 19.8125 L 220.339844 26.339844 L 206.523438 40.847656 L 197.792969 63.332031 L 181.792969 79.292969 L 163.300781 79.5 L 165.792969 63.332031 L 162.15625 44.472656 L 148.546875 32.039062 L 135.25 22.714844 L 117.066406 16.183594 Z M 103.769531 13.386719 "/>
<path style="fill-rule:nonzero;fill:url(#linear2);stroke-width:0.005;stroke-linecap:butt;stroke-linejoin:miter;stroke:rgb(59.215686%,59.215686%,58.823529%);stroke-opacity:1;stroke-miterlimit:4;" d="M -549.13663 142.531519 L -516.834547 132.275434 L -497.438713 128.395459 L -480.954338 128.395459 L -463.501213 130.338057 L -469.318922 142.944061 L -474.16788 160.396116 L -491.621005 192.396774 L -512.954338 228.277408 L -525.558505 248.638139 C -525.558505 248.638139 -534.287672 255.426791 -534.287672 259.306766 C -534.287672 263.186741 -535.256422 266.095417 -535.256422 266.095417 C -535.256422 266.095417 -543.985588 259.306766 -545.923088 255.426791 C -547.865797 251.546815 -554.652255 241.849488 -554.652255 241.849488 L -565.318922 223.426133 L -571.13663 205.002778 L -571.13663 200.156725 L -556.07413 185.456684 L -549.41788 170.354546 L -543.016838 156.516141 Z M -549.13663 142.531519 " transform="matrix(0.75,0,0,0.748031,597.055597,-16.028222)"/>
<path style="fill-rule:nonzero;fill:url(#linear3);stroke-width:0.5;stroke-linecap:butt;stroke-linejoin:miter;stroke:rgb(22.352941%,23.137255%,22.352941%);stroke-opacity:1;stroke-miterlimit:4;" d="M -753.438713 185.608123 L -740.834547 190.459398 C -740.834547 190.459398 -735.329338 198.600557 -734.006422 204.172473 C -731.501213 214.720993 -730.647047 225.614167 -728.188713 236.173131 C -724.98038 249.922761 -723.19913 264.445253 -716.553297 276.899817 C -711.365797 286.612811 -702.897047 294.221322 -695.219963 302.111824 C -681.006422 316.712646 -666.464755 331.344801 -649.641838 342.83851 C -628.397047 357.350557 -582.772047 380.515524 -582.772047 380.515524 C -582.772047 380.515524 -626.443922 360.802325 -646.735588 347.684562 C -670.19913 332.51976 -691.662672 313.699529 -709.76163 292.414496 C -719.641838 280.800681 -727.256422 267.296487 -734.006422 253.625187 C -741.344963 238.768485 -748.506422 223.384357 -751.459547 207.081149 C -752.902255 199.127983 -753.438713 185.608123 -753.438713 185.608123 Z M -753.438713 185.608123 " transform="matrix(0.75,0,0,0.748031,597.055597,-16.028222)"/>
<path style=" stroke:none;fill-rule:nonzero;fill:url(#linear4);" d="M 79.976562 156.90625 L 91.613281 185.195312 L 100.339844 209.132812 L 111.25 228.714844 L 121.429688 248.300781 L 138.15625 267.160156 L 154.15625 277.316406 L 135.976562 254.105469 L 134.523438 236.695312 L 138.15625 211.308594 L 146.886719 185.195312 L 154.886719 165.609375 L 157.792969 145.300781 L 153.429688 124.988281 L 150.523438 121.363281 L 131.300781 143.953125 L 121.949219 152.96875 L 100.546875 157.941406 Z M 79.976562 156.90625 "/>
<path style="fill-rule:nonzero;fill:rgb(0%,0%,0%);fill-opacity:1;stroke-width:0.005;stroke-linecap:butt;stroke-linejoin:miter;stroke:rgb(0%,0%,0%);stroke-opacity:1;stroke-miterlimit:4;" d="M -639.985588 47.913386 L -658.407463 75.062769 L -669.089755 105.240936 L -692.350172 153.607465 L -695.256422 179.790771 L -701.07413 203.065401 L -698.16788 209.84883 L -691.376213 207.911454 L -682.652255 170.093444 L -667.13663 140.035385 L -656.469963 112.880779 L -645.803297 87.668773 L -634.16788 64.399365 L -627.376213 49.850763 Z M -639.985588 47.913386 " transform="matrix(0.75,0,0,0.748031,597.055597,-16.028222)"/>
<path style="fill-rule:nonzero;fill:rgb(0%,0%,0%);fill-opacity:1;stroke-width:0.005;stroke-linecap:butt;stroke-linejoin:miter;stroke:rgb(0%,0%,0%);stroke-opacity:1;stroke-miterlimit:4;" d="M -619.621005 145.852737 L -645.803297 199.185426 L -646.772047 222.460056 L -659.376213 232.152161 L -664.225172 264.152819 L -664.225172 286.456149 L -658.407463 303.913427 L -640.954338 337.851462 L -616.709547 373.732095 L -607.016838 377.606848 C -607.016838 377.606848 -607.985588 367.909521 -611.865797 367.909521 C -615.740797 367.909521 -613.803297 351.428764 -613.803297 351.428764 L -619.621005 333.005409 L -635.13663 303.913427 L -646.772047 266.095417 L -645.803297 228.277408 L -626.407463 208.882753 L -608.954338 183.670746 L -591.501213 145.852737 L -582.772047 113.852079 L -578.891838 90.577449 L -571.13663 75.062769 L -543.985588 61.485467 L -521.683505 55.668115 L -485.803297 50.822062 L -447.016838 40.153436 L -438.287672 33.364784 L -447.985588 33.364784 L -496.469963 43.062112 L -528.469963 50.822062 L -560.469963 54.702038 L -578.891838 61.485467 L -588.589755 69.245417 L -591.501213 85.731396 L -604.10538 114.823378 L -615.740797 134.212811 Z M -619.621005 145.852737 " transform="matrix(0.75,0,0,0.748031,597.055597,-16.028222)"/>
<path style="fill-rule:nonzero;fill:rgb(70.980392%,70.588235%,69.019608%);fill-opacity:1;stroke-width:0.005;stroke-linecap:round;stroke-linejoin:round;stroke:rgb(67.843137%,67.843137%,66.666667%);stroke-opacity:1;stroke-miterlimit:4;" d="M -497.45216 130.66601 C -497.45216 137.360665 -502.665702 142.786364 -509.092785 142.786364 C -515.519868 142.786364 -520.728202 137.360665 -520.728202 130.66601 C -520.728202 123.971356 -515.519868 118.545657 -509.092785 118.545657 C -502.665702 118.545657 -497.45216 123.971356 -497.45216 130.66601 Z M -497.45216 130.66601 " transform="matrix(0.75,0,0,0.748031,423.05787,-48.230572)"/>
<path style="fill-rule:nonzero;fill:rgb(0%,0%,0%);fill-opacity:1;stroke-width:0.005;stroke-linecap:butt;stroke-linejoin:miter;stroke:rgb(0%,0%,0%);stroke-opacity:1;stroke-miterlimit:4;" d="M -760.277255 167.456314 L -771.214755 135.732424 L -766.839755 114.943485 L -754.808505 95.251174 L -743.865797 100.723871 L -749.334547 112.75545 L -754.808505 128.071692 L -760.277255 147.764003 Z M -760.277255 167.456314 " transform="matrix(0.75,0,0,0.748031,597.055597,-16.028222)"/>
<path style="fill-rule:nonzero;fill:rgb(0%,0%,0%);fill-opacity:1;stroke-width:0.005;stroke-linecap:butt;stroke-linejoin:miter;stroke:rgb(0%,0%,0%);stroke-opacity:1;stroke-miterlimit:4;" d="M -725.787672 53.359973 L -710.469963 46.79587 L -695.152255 46.79587 L -694.058505 54.456602 L -707.188713 68.676215 L -707.188713 79.616388 L -712.657463 85.089085 L -727.975172 89.465154 L -731.256422 79.616388 L -734.537672 69.772843 L -730.162672 61.020705 Z M -725.787672 53.359973 " transform="matrix(0.75,0,0,0.748031,597.055597,-16.028222)"/>
<path style="fill-rule:nonzero;fill:rgb(11.764706%,0%,0%);fill-opacity:1;stroke-width:0.005;stroke-linecap:round;stroke-linejoin:round;stroke:rgb(19.215686%,18.823529%,19.215686%);stroke-opacity:1;stroke-miterlimit:4;" d="M -503.11402 129.866188 C -503.11402 133.500728 -506.129645 136.445958 -509.848395 136.445958 C -513.561937 136.445958 -516.577562 133.500728 -516.577562 129.866188 C -516.577562 126.231649 -513.561937 123.286419 -509.848395 123.286419 C -506.129645 123.286419 -503.11402 126.231649 -503.11402 129.866188 Z M -503.11402 129.866188 " transform="matrix(0.75,0,0,0.748031,423.97614,-47.827593)"/>
<path style="fill:none;stroke-width:0.005;stroke-linecap:butt;stroke-linejoin:miter;stroke:rgb(0%,0%,0%);stroke-opacity:1;stroke-miterlimit:4;" d="M -779.037672 67.245376 Z M -779.037672 67.245376 " transform="matrix(0.75,0,0,0.748031,597.055597,-16.028222)"/>
<path style=" stroke:none;fill-rule:nonzero;fill:rgb(96.862745%,95.686275%,96.862745%);fill-opacity:1;" d="M 7.5 35.617188 L 13.027344 38.308594 L 15.429688 39.273438 L 16.277344 39.324219 C 16.277344 39.324219 16.367188 38.136719 15.664062 37.179688 C 14.394531 35.445312 14.113281 34.65625 13.207031 32.804688 C 12.835938 32.046875 12.894531 30.304688 12.894531 30.304688 L 10.285156 31.839844 Z M 7.5 35.617188 "/>
<path style=" stroke:none;fill-rule:nonzero;fill:rgb(13.72549%,14.509804%,13.333333%);fill-opacity:1;" d="M 177.074219 91.867188 L 175.824219 104.367188 L 172.0625 113.742188 L 167.675781 121.867188 L 163.914062 126.242188 L 168.929688 132.804688 L 178.640625 124.992188 L 186.789062 106.867188 C 186.789062 106.867188 190.546875 103.742188 188.667969 99.992188 C 186.789062 96.242188 185.222656 91.867188 185.222656 91.867188 L 183.65625 91.554688 Z M 177.074219 91.867188 "/>
<path style=" stroke:none;fill-rule:nonzero;fill:rgb(57.254902%,14.509804%,13.333333%);fill-opacity:1;" d="M 41.488281 44.308594 C 41.078125 44.710938 41.726562 45.996094 41.832031 45.996094 C 41.9375 45.996094 43.332031 47.089844 43.355469 47.175781 C 43.375 47.261719 43.589844 48.253906 43.589844 48.800781 C 43.59375 49.511719 43.492188 50.234375 43.289062 50.917969 C 43.140625 51.429688 42.894531 51.910156 42.625 52.375 C 42.410156 52.746094 42.039062 53.023438 41.875 53.421875 C 41.824219 53.546875 41.8125 53.828125 41.8125 53.828125 C 41.8125 53.828125 41.8125 54.289062 41.980469 54.382812 C 42.40625 54.625 42.953125 54.234375 43.398438 54.042969 C 44.140625 53.722656 44.878906 53.300781 45.4375 52.714844 C 45.976562 52.148438 46.40625 51.4375 46.617188 50.683594 C 46.789062 50.050781 46.746094 49.363281 46.636719 48.714844 C 46.542969 48.160156 46.308594 47.632812 46.058594 47.132812 C 45.835938 46.691406 45.59375 46.242188 45.242188 45.890625 C 44.753906 45.398438 44.148438 45.003906 43.503906 44.734375 C 42.871094 44.46875 41.976562 43.824219 41.488281 44.308594 Z M 41.488281 44.308594 "/>
</g>
</svg>
